<svg width="34" height="36" viewBox="0 0 34 36" fill="none" xmlns="http://www.w3.org/2000/svg">
<g clip-path="url(#clip0)">
<path fill-rule="evenodd" clip-rule="evenodd" d="M22.1432 6.66667V11.8961H11.8039V6.66667C11.8039 4.48573 14.1207 2.66667 16.9735 2.66667C19.8263 2.66667 22.1432 4.48573 22.1432 6.66667ZM8.40392 6.66667C8.40392 2.98477 12.2791 0 16.9735 0C21.6679 0 25.5432 2.98477 25.5432 6.66667V11.8961V12.3223H29.4996C31.3145 12.3223 32.8095 13.4403 32.8959 14.8621L33.9431 32.1121C34.0354 33.6331 32.4882 34.9057 30.547 34.9057H3.40009C1.45881 34.9057 -0.0884082 33.6331 0.00392842 32.1121L1.05125 14.8621C1.13758 13.4403 2.63252 12.3223 4.4474 12.3223H8.40392V11.8961V6.66667ZM4.4474 14.9889H29.4996L30.547 32.2391H3.40009L4.4474 14.9889Z" fill="black" fill-opacity="0.8"/>
</g>
<defs>
<clipPath id="clip0">
<rect width="34" height="36" fill="white"/>
</clipPath>
</defs>
</svg>
