<svg width="43" height="38" viewBox="0 0 43 38" fill="none" xmlns="http://www.w3.org/2000/svg">
<path d="M1.6875 1.8125H7.9375L12.625 28.375H37.625M12.625 22.125H36.9844C37.1651 22.1251 37.3402 22.0626 37.48 21.9481C37.6197 21.8336 37.7155 21.6742 37.751 21.4971L40.5635 7.43457C40.5862 7.32118 40.5834 7.20416 40.5554 7.09196C40.5274 6.97977 40.4748 6.87519 40.4015 6.78578C40.3281 6.69637 40.2358 6.62435 40.1313 6.57493C40.0267 6.52551 39.9125 6.49992 39.7969 6.5H9.5M15.75 34.625C15.75 35.4879 15.0504 36.1875 14.1875 36.1875C13.3246 36.1875 12.625 35.4879 12.625 34.625C12.625 33.7621 13.3246 33.0625 14.1875 33.0625C15.0504 33.0625 15.75 33.7621 15.75 34.625ZM37.625 34.625C37.625 35.4879 36.9254 36.1875 36.0625 36.1875C35.1996 36.1875 34.5 35.4879 34.5 34.625C34.5 33.7621 35.1996 33.0625 36.0625 33.0625C36.9254 33.0625 37.625 33.7621 37.625 34.625Z" stroke="black" stroke-width="3" stroke-linecap="round" stroke-linejoin="round"/>
</svg>
