<svg width="36" height="36" viewBox="0 0 36 36" fill="none" xmlns="http://www.w3.org/2000/svg">
<path d="M2.76965 34.889C2.31246 36.5928 -0.396419 35.9067 0.0493456 34.2143C1.75239 27.639 6.95298 22.6532 13.1823 20.9608C9.55899 19.257 6.95298 15.4033 6.95298 10.9893C6.95298 4.98577 11.9364 0 17.9371 0C24.052 0 29.0355 4.98577 29.0355 10.9893C29.0355 15.4033 26.4295 19.257 22.6919 20.9608C29.0355 22.6647 34.1332 27.6505 35.8248 34.2143C36.282 35.9181 33.676 36.5928 33.2188 34.889C31.4243 27.9706 25.0807 23.0992 17.9485 23.0992C10.8163 23.0992 4.587 27.9706 2.76965 34.889ZM17.9485 2.71016C13.4223 2.71016 9.68472 6.44949 9.68472 10.9778C9.68472 15.6206 13.4223 19.2455 17.9485 19.2455C22.589 19.2455 26.2123 15.6206 26.2123 10.9778C26.2123 6.44949 22.589 2.71016 17.9485 2.71016Z" fill="#020203"/>
</svg>
